<svg width="28" height="24" viewBox="0 0 28 24" fill="none" xmlns="http://www.w3.org/2000/svg">
<path d="M0.420589 1.06207L0.280029 1.20823V10.5331V19.8582L0.415269 19.9881L0.545189 20.1234H7.32791H14.1106L14.2243 19.999C14.3758 19.8422 14.3811 19.534 14.2405 19.3609L14.1378 19.231L8.13375 19.2038L2.12971 19.1767L3.75791 17.8786C6.65703 15.5689 9.64295 13.1295 11.1628 11.8258L11.5251 11.5122L11.9686 11.9017C12.2119 12.1182 12.5583 12.3615 12.7476 12.448C13.2127 12.6698 13.8186 12.751 14.3271 12.6644C15.1438 12.5239 14.9599 12.6698 20.9964 7.34219L26.5407 2.44723L26.5675 6.21183C26.5947 10.1064 26.6 10.1657 26.8165 10.2469C26.9786 10.3119 27.2059 10.2794 27.3303 10.1766L27.4602 10.0739L27.4871 5.72519C27.5142 1.16007 27.5142 1.10603 27.2815 0.981433C27.2003 0.938033 23.2952 0.921792 13.8673 0.921792H0.566749L0.420589 1.06207ZM25.7292 1.89507C25.6318 2.05187 14.8355 11.5176 14.6138 11.6366C14.2568 11.8312 13.8835 11.8799 13.5159 11.7718C13.148 11.6637 12.9262 11.5122 12.1744 10.8414C11.8337 10.5384 9.42119 8.40731 6.81411 6.10851C4.20171 3.80971 2.06503 1.90571 2.06503 1.88415C2.06503 1.86259 7.39819 1.84103 13.916 1.84103C21.5589 1.84075 25.7508 1.85699 25.7292 1.89507ZM6.06231 6.69819C8.63691 8.96983 10.7517 10.8467 10.7627 10.8738C10.7951 10.9713 7.85795 13.4053 3.77443 16.6724C2.40607 17.7702 1.26479 18.6629 1.24295 18.6629C1.22139 18.6629 1.19955 15.0064 1.19955 10.544C1.19955 2.94983 1.20487 2.42511 1.29139 2.49539C1.34011 2.53851 3.48743 4.42627 6.06231 6.69819Z" fill="#F9B52E" stroke="#F9B52E"/>
<path d="M25 11L22.5 13L25.5 15.5L27 13.5L25 11Z" fill="#F9B52E"/>
<path d="M19.5 21L17.5 19L16.5 22L19.5 21Z" fill="#F9B52E"/>
<path d="M24.3715 10.955C24.1713 11.0578 23.2465 11.9502 20.4608 14.7306L16.8205 18.3762L16.3229 20.199C15.8741 21.8272 15.8038 22.038 15.6523 22.1948C15.355 22.5031 15.3765 22.8494 15.7011 23.0169C15.9175 23.1306 16.0743 23.0928 16.3339 22.8601C16.5125 22.6977 16.7071 22.633 18.3406 22.1895L20.1525 21.6972L23.8197 18.0298C27.8438 14.0056 27.7195 14.1515 27.7195 13.4972C27.7195 12.9346 27.5843 12.7238 26.6866 11.8312C25.7724 10.9226 25.6047 10.8251 25.0206 10.8198C24.7232 10.8198 24.5824 10.8467 24.3715 10.955ZM26.0104 12.5074C26.7135 13.2104 26.8381 13.3566 26.8381 13.4972C26.8381 13.6377 26.7244 13.7786 26.0916 14.4058L25.3504 15.1469L24.3606 14.1571L23.3761 13.1673L24.1226 12.4264C24.7392 11.8152 24.9016 11.6853 25.0315 11.6853C25.1614 11.6853 25.3289 11.8258 26.0104 12.5074ZM22.2836 18.2138L19.8876 20.61L18.9031 19.6255L17.9133 18.6357L20.304 16.2451L22.7002 13.8488L23.6847 14.8333L24.6745 15.8231L22.2836 18.2138ZM18.8975 21.0479C18.8435 21.102 16.9829 21.5942 16.9557 21.5617C16.9342 21.5402 17.4102 19.7064 17.4642 19.6146C17.4805 19.593 17.8212 19.896 18.216 20.2908C18.6164 20.6856 18.9194 21.0264 18.8975 21.0479Z" fill="#F9B52E"/>
</svg>
