<svg width="18" height="19" viewBox="0 0 18 19" fill="none" xmlns="http://www.w3.org/2000/svg">
<path d="M15.2361 1.39955C15.782 0.853649 16.6671 0.85365 17.213 1.39955C17.7589 1.94545 17.7589 2.83054 17.213 3.37644L2.38631 18.2031C1.84041 18.749 0.955328 18.749 0.409427 18.2031C-0.136475 17.6572 -0.136476 16.7721 0.409426 16.2262L15.2361 1.39955Z" fill="#C9C9C9"/>
<path d="M0.552606 2.94294C0.0188122 2.38519 0.038232 1.50033 0.59598 0.966532C1.15373 0.432739 2.0386 0.452157 2.57239 1.00991L17.0702 16.1583C17.604 16.716 17.5845 17.6009 17.0268 18.1347C16.469 18.6685 15.5842 18.6491 15.0504 18.0913L0.552606 2.94294Z" fill="#C9C9C9"/>
</svg>
